<?xml version="1.0" encoding="utf-8"?>
<!-- Generator: Adobe Illustrator 15.0.0, SVG Export Plug-In . SVG Version: 6.00 Build 0)  -->
<!DOCTYPE svg PUBLIC "-//W3C//DTD SVG 1.1//EN" "http://www.w3.org/Graphics/SVG/1.1/DTD/svg11.dtd">
<svg version="1.1" id="Layer_1" xmlns="http://www.w3.org/2000/svg" xmlns:xlink="http://www.w3.org/1999/xlink" x="0px" y="0px"
	 width="917.954px" height="896.826px" viewBox="0 0 917.954 896.826" enable-background="new 0 0 917.954 896.826"
	 xml:space="preserve">
<g>
	<g>
		<path fill="#FBD9E2" d="M522.398,889.055H298.567c-21.479,0-38.892-17.41-38.892-38.891V626.333
			c0-21.479,17.413-38.889,38.892-38.889h223.831c21.479,0,38.889,17.41,38.889,38.889v223.832
			C561.287,871.645,543.877,889.055,522.398,889.055"/>
		<path fill="none" stroke="#FFFFFF" stroke-width="11.1708" stroke-miterlimit="10" d="M512.621,587.444
			c21.481,0,38.892,17.41,38.892,38.889v223.832c0,21.48-17.41,38.891-38.892,38.891"/>
		<path fill="none" stroke="#EB148C" stroke-width="11.1708" stroke-miterlimit="10" d="M522.398,889.055H298.567
			c-21.479,0-38.892-17.41-38.892-38.891V626.333c0-21.479,17.413-38.889,38.892-38.889h223.831
			c21.479,0,38.889,17.41,38.889,38.889v223.832C561.287,871.645,543.877,889.055,522.398,889.055z"/>
		
			<rect x="309.945" y="552.65" fill="none" stroke="#EB148C" stroke-width="11.1708" stroke-miterlimit="10" width="50.27" height="34.793"/>
		
			<rect x="460.751" y="552.65" fill="none" stroke="#EB148C" stroke-width="11.1708" stroke-miterlimit="10" width="50.27" height="34.793"/>
		<circle fill="none" stroke="#EB148C" stroke-width="11.1708" stroke-miterlimit="10" cx="410.481" cy="738.248" r="100.537"/>
		<path fill="#FFFFFF" d="M449.58,738.249c0-27.764-22.504-50.27-50.27-50.27c-27.758,0-50.267,22.506-50.267,50.27
			c0,27.763,22.509,50.267,50.267,50.267C427.076,788.516,449.58,766.012,449.58,738.249"/>
		<path fill="none" stroke="#EB148C" stroke-width="11.1708" stroke-miterlimit="10" d="M410.481,687.979
			c27.766,0,50.27,22.506,50.27,50.27c0,27.763-22.504,50.267-50.27,50.267c-27.759,0-50.267-22.504-50.267-50.267
			C360.215,710.485,382.723,687.979,410.481,687.979z"/>
		<path fill="#EB148C" d="M243.2,264.811c32.54,0,58.926,19.188,58.926,42.856c0,23.67-26.386,42.854-58.926,42.854
			c-8.275,0-16.149-1.248-23.303-3.487l-14.195,14.2v-20.51c-13.088-7.86-21.428-19.751-21.428-33.058
			C184.274,283.998,210.656,264.811,243.2,264.811 M243.2,253.64c-18.083,0-35.215,5.217-48.241,14.69
			c-14.093,10.249-21.855,24.221-21.855,39.337c0,14.975,7.725,28.912,21.428,39.022v14.545c0,4.521,2.719,8.592,6.896,10.321
			c1.387,0.572,2.834,0.85,4.271,0.85c2.909,0,5.764-1.135,7.901-3.27l9.642-9.642c6.45,1.46,13.139,2.197,19.959,2.197
			c18.083,0,35.215-5.218,48.237-14.689c14.094-10.251,21.858-24.221,21.858-39.335c0-15.116-7.765-29.088-21.858-39.337
			C278.415,258.856,261.283,253.64,243.2,253.64"/>
		<path fill="none" stroke="#EB148C" stroke-width="11.1708" stroke-linejoin="round" stroke-miterlimit="10" d="M466.127,104.865
			c0-38.868-43.326-70.377-96.767-70.377c-53.444,0-96.768,31.509-96.768,70.377c0,38.866,43.323,70.375,96.768,70.375
			c13.59,0,26.521-2.048,38.26-5.729l23.32,23.323v-33.684C452.432,146.242,466.127,126.717,466.127,104.865z"/>
		<path fill="#EB148C" d="M338.57,102.666c0,8.501-6.892,15.392-15.392,15.392c-8.506,0-15.398-6.891-15.398-15.392
			s6.893-15.396,15.398-15.396C331.679,87.268,338.57,94.165,338.57,102.666"/>
		<path fill="#EB148C" d="M384.759,102.666c0,8.501-6.896,15.392-15.396,15.392c-8.503,0-15.397-6.891-15.397-15.392
			s6.895-15.396,15.397-15.396C377.863,87.268,384.759,94.165,384.759,102.666"/>
		<path fill="#EB148C" d="M430.94,102.666c0,8.501-6.896,15.392-15.396,15.392c-8.503,0-15.395-6.891-15.395-15.392
			s6.892-15.396,15.395-15.396C424.045,87.268,430.94,94.165,430.94,102.666"/>
		<path fill="#FBD9E2" d="M442.688,327.721c0,0,12.088-8.18,13.387-14.936c1.305-6.755-5.448-8.057-5.448-8.057l-9.893-6.356
			c-11.559-7.419-14.494-23.024-6.44-34.143l38.097-52.57c9.022-12.455,27.697-13.614,37.39-1.672
			c0.333,0.416,0.639,0.824,0.911,1.227c29.084,42.974,27.004,69.319,19.452,80.82c-19.282,29.367-69.471,99.878-136.617,145.317
			c-67.149,45.441-151.261,65.813-185.693,72.798c-13.485,2.733-38.716-5.13-67.799-48.104c-0.269-0.402-0.534-0.841-0.796-1.305
			c-7.483-13.439,0.537-30.34,15.453-34.092l62.963-15.818c13.318-3.346,26.708,5.188,29.305,18.673l2.219,11.548
			c0,0-1.302,6.757,5.455,8.058c6.756,1.302,18.844-6.88,18.844-6.88L442.688,327.721z"/>
		<path fill="none" stroke="#EB148C" stroke-width="11.1708" stroke-miterlimit="10" d="M457.832,324.929
			c0,0,12.085-8.18,13.383-14.936c1.305-6.755-5.444-8.057-5.444-8.057l-9.896-6.356c-11.551-7.42-14.497-23.026-6.437-34.144
			l38.087-52.571c9.029-12.453,27.707-13.613,37.396-1.672c0.34,0.417,0.643,0.826,0.918,1.228
			c29.08,42.975,27.001,69.319,19.446,80.821c-19.286,29.367-69.468,99.877-136.617,145.317
			c-67.146,45.44-151.258,65.813-185.694,72.796c-13.485,2.735-38.715-5.128-67.796-48.104c-0.274-0.4-0.54-0.841-0.798-1.305
			c-7.483-13.438,0.54-30.34,15.456-34.09l62.959-15.817c13.318-3.347,26.712,5.186,29.309,18.672l2.219,11.547
			c0,0-1.298,6.756,5.454,8.058c6.757,1.302,18.842-6.88,18.842-6.88L457.832,324.929z"/>
		<path fill="none" stroke="#EB148C" stroke-width="11.1708" stroke-miterlimit="10" d="M176.665,484.698H58.89
			c-26.383,0-47.762,21.381-47.762,47.764c0,26.371,21.379,47.755,47.758,47.755h77.627c26.376,0,47.762,21.381,47.762,47.758v5.023
			c0,26.373-21.386,47.756-47.762,47.756h-13.396c-26.375,0-47.758,21.387-47.758,47.764v5.018
			c0,26.375,21.383,47.759,47.758,47.759h136.56"/>
		
			<line fill="none" stroke="#EB148C" stroke-width="11.1708" stroke-linecap="round" stroke-miterlimit="10" x1="45.839" y1="889.055" x2="875.269" y2="889.055"/>
		<polygon fill="none" stroke="#EB148C" stroke-width="11.1708" stroke-linecap="round" stroke-miterlimit="10" points="
			703.716,889.055 645.068,889.055 636.691,775.949 712.093,775.949 		"/>
		
			<rect x="655.543" y="719.397" fill="none" stroke="#EB148C" stroke-width="11.1708" stroke-linecap="round" stroke-miterlimit="10" width="37.698" height="56.552"/>
		
			<line fill="none" stroke="#EB148C" stroke-width="11.1708" stroke-linecap="round" stroke-miterlimit="10" x1="687.658" y1="804.225" x2="684.178" y2="851.248"/>
		
			<line fill="none" stroke="#EB148C" stroke-width="11.1708" stroke-linecap="round" stroke-miterlimit="10" x1="688.042" y1="386.368" x2="712.093" y2="386.368"/>
		
			<line fill="none" stroke="#EB148C" stroke-width="11.1708" stroke-linecap="round" stroke-miterlimit="10" x1="611.557" y1="386.368" x2="635.611" y2="386.368"/>
		
			<line fill="none" stroke="#EB148C" stroke-width="11.1708" stroke-linecap="round" stroke-miterlimit="10" x1="661.826" y1="360.152" x2="661.826" y2="336.1"/>
		
			<line fill="none" stroke="#EB148C" stroke-width="11.1708" stroke-linecap="round" stroke-miterlimit="10" x1="661.826" y1="436.638" x2="661.826" y2="412.585"/>
		
			<line fill="none" stroke="#EB148C" stroke-width="11.1708" stroke-linecap="round" stroke-miterlimit="10" x1="825.886" y1="285.213" x2="861.672" y2="285.213"/>
		
			<line fill="none" stroke="#EB148C" stroke-width="11.1708" stroke-linecap="round" stroke-miterlimit="10" x1="712.093" y1="285.213" x2="747.878" y2="285.213"/>
		
			<line fill="none" stroke="#EB148C" stroke-width="11.1708" stroke-linecap="round" stroke-miterlimit="10" x1="786.879" y1="246.213" x2="786.879" y2="210.429"/>
		
			<line fill="none" stroke="#EB148C" stroke-width="11.1708" stroke-linecap="round" stroke-miterlimit="10" x1="786.879" y1="360.003" x2="786.879" y2="324.221"/>
	</g>
</g>
</svg>
