<?xml version="1.0" encoding="utf-8"?>
<!-- Generator: Adobe Illustrator 15.0.0, SVG Export Plug-In . SVG Version: 6.00 Build 0)  -->
<!DOCTYPE svg PUBLIC "-//W3C//DTD SVG 1.1//EN" "http://www.w3.org/Graphics/SVG/1.1/DTD/svg11.dtd">
<svg version="1.1" id="Layer_1" xmlns="http://www.w3.org/2000/svg" xmlns:xlink="http://www.w3.org/1999/xlink" x="0px" y="0px"
	 width="917.954px" height="896.826px" viewBox="0 0 917.954 896.826" enable-background="new 0 0 917.954 896.826"
	 xml:space="preserve">
<g>
	
		<line fill="none" stroke="#EB148C" stroke-width="11.1708" stroke-linecap="round" stroke-miterlimit="10" x1="45.381" y1="889.055" x2="874.812" y2="889.055"/>
	<rect x="296.723" y="551.479" fill="#FBD9E2" width="458.732" height="337.575"/>
	
		<rect x="296.723" y="551.479" fill="none" stroke="#EB148C" stroke-width="11.1708" stroke-linejoin="round" stroke-miterlimit="10" width="477.251" height="337.575"/>
	<polyline fill="none" stroke="#EB148C" stroke-width="11.1708" stroke-linejoin="round" stroke-miterlimit="10" points="
		741.813,551.479 741.813,334.294 668.214,260.697 328.359,260.697 328.359,551.479 	"/>
	<polyline fill="none" stroke="#EB148C" stroke-width="11.1708" stroke-linejoin="round" stroke-miterlimit="10" points="
		741.813,334.294 668.214,334.294 668.214,260.697 	"/>
	
		<line fill="none" stroke="#EB148C" stroke-width="11.1708" stroke-linecap="round" stroke-linejoin="round" stroke-miterlimit="10" x1="367.631" y1="299.969" x2="603.267" y2="299.969"/>
	
		<line fill="none" stroke="#EB148C" stroke-width="11.1708" stroke-linecap="round" stroke-linejoin="round" stroke-miterlimit="10" x1="367.631" y1="339.241" x2="485.449" y2="339.241"/>
	<text transform="matrix(1 0 0 1 367.6309 445.8857)" fill="#EB148C" font-family="'Gotham-Bold'" font-size="81.2075">A</text>
	<g>
		
			<line fill="none" stroke="#EB148C" stroke-width="11.1708" stroke-linecap="round" stroke-linejoin="round" stroke-miterlimit="10" x1="448.97" y1="398.15" x2="681.812" y2="398.15"/>
		
			<line fill="none" stroke="#EB148C" stroke-width="11.1708" stroke-linecap="round" stroke-linejoin="round" stroke-miterlimit="10" x1="448.97" y1="437.422" x2="681.812" y2="437.422"/>
		
			<line fill="none" stroke="#EB148C" stroke-width="11.1708" stroke-linecap="round" stroke-linejoin="round" stroke-miterlimit="10" x1="367.631" y1="476.693" x2="681.812" y2="476.693"/>
		
			<line fill="none" stroke="#EB148C" stroke-width="11.1708" stroke-linecap="round" stroke-linejoin="round" stroke-miterlimit="10" x1="367.631" y1="515.967" x2="681.812" y2="515.967"/>
		<rect x="328.359" y="583.34" fill="#FFFFFF" width="148.957" height="39.271"/>
		
			<rect x="328.359" y="583.34" fill="none" stroke="#EB148C" stroke-width="11.1708" stroke-linecap="round" stroke-linejoin="round" stroke-miterlimit="10" width="148.957" height="39.271"/>
		<rect x="437.167" y="702.51" fill="#FFFFFF" width="196.36" height="98.181"/>
		
			<rect x="437.167" y="702.51" fill="none" stroke="#EB148C" stroke-width="11.1708" stroke-linecap="round" stroke-linejoin="round" stroke-miterlimit="10" width="196.36" height="98.181"/>
		<polygon fill="#FBD9E2" points="171.908,573.186 208.755,629.073 183.619,629.073 158.484,629.073 148.245,612.02 		"/>
		
			<polygon fill="none" stroke="#EB148C" stroke-width="11.1708" stroke-linecap="round" stroke-linejoin="round" stroke-miterlimit="10" points="
			221.32,889.055 145.916,889.055 145.916,616.504 183.619,553.67 221.32,616.504 		"/>
		<polygon fill="#FBD9E2" points="145.916,826.217 158.484,826.217 175.24,826.217 207.357,826.217 207.357,889.055 
			145.916,889.055 		"/>
		
			<rect x="145.916" y="826.217" fill="none" stroke="#EB148C" stroke-width="11.1708" stroke-linecap="round" stroke-linejoin="round" stroke-miterlimit="10" width="75.404" height="62.836"/>
		
			<polyline fill="none" stroke="#EB148C" stroke-width="11.1708" stroke-linecap="round" stroke-linejoin="round" stroke-miterlimit="10" points="
			145.916,616.504 158.484,629.073 171.053,616.504 183.619,629.073 196.187,616.504 208.755,629.073 221.32,616.504 		"/>
		
			<line fill="none" stroke="#EB148C" stroke-width="11.1708" stroke-linecap="round" stroke-linejoin="round" stroke-miterlimit="10" x1="183.619" y1="629.073" x2="183.619" y2="826.217"/>
		
			<path fill="none" stroke="#EB148C" stroke-width="11.1708" stroke-linecap="round" stroke-miterlimit="10" stroke-dasharray="5.5854,25.1343" d="
			M181.91,528.533c0,0-0.254-125.671,114.501-125.671"/>
		
			<line fill="none" stroke="#EB148C" stroke-width="11.1708" stroke-linecap="round" stroke-linejoin="round" stroke-miterlimit="10" x1="411.082" y1="160.157" x2="411.082" y2="95.672"/>
		
			<polyline fill="none" stroke="#EB148C" stroke-width="11.1708" stroke-linecap="round" stroke-linejoin="round" stroke-miterlimit="10" points="
			372.126,135.025 411.082,95.672 450.037,135.025 		"/>
		
			<line fill="none" stroke="#EB148C" stroke-width="11.1708" stroke-linecap="round" stroke-linejoin="round" stroke-miterlimit="10" x1="535.5" y1="135.025" x2="535.5" y2="48.452"/>
		
			<polyline fill="none" stroke="#EB148C" stroke-width="11.1708" stroke-linecap="round" stroke-linejoin="round" stroke-miterlimit="10" points="
			496.545,87.805 535.5,48.452 574.454,87.805 		"/>
		
			<line fill="none" stroke="#EB148C" stroke-width="11.1708" stroke-linecap="round" stroke-linejoin="round" stroke-miterlimit="10" x1="659.916" y1="160.157" x2="659.916" y2="95.672"/>
		
			<polyline fill="none" stroke="#EB148C" stroke-width="11.1708" stroke-linecap="round" stroke-linejoin="round" stroke-miterlimit="10" points="
			620.962,135.025 659.916,95.672 698.874,135.025 		"/>
		
			<line fill="none" stroke="#EB148C" stroke-width="11.1708" stroke-linecap="round" stroke-linejoin="round" stroke-miterlimit="10" x1="411.082" y1="221.599" x2="411.082" y2="184.828"/>
		
			<line fill="none" stroke="#EB148C" stroke-width="11.1708" stroke-linecap="round" stroke-linejoin="round" stroke-miterlimit="10" x1="535.5" y1="221.599" x2="535.5" y2="159.693"/>
		
			<line fill="none" stroke="#EB148C" stroke-width="11.1708" stroke-linecap="round" stroke-linejoin="round" stroke-miterlimit="10" x1="659.916" y1="221.599" x2="659.916" y2="184.828"/>
	</g>
</g>
</svg>
