<?xml version="1.0" encoding="UTF-8"?>
<svg width="24px" height="18px" viewBox="0 0 24 18" version="1.1" xmlns="http://www.w3.org/2000/svg" xmlns:xlink="http://www.w3.org/1999/xlink">
    <!-- Generator: Sketch 49.1 (51147) - http://www.bohemiancoding.com/sketch -->
    <title>cards-color_paypal</title>
    <desc>Created with Sketch.</desc>
    <defs></defs>
    <g id="Symbols" stroke="none" stroke-width="1" fill="none" fill-rule="evenodd">
        <g id="icon/payment/paypal" transform="translate(0.000000, -3.000000)" fill-rule="nonzero">
            <g id="cards-color_paypal" transform="translate(0.000000, 3.130000)">
                <path d="M22.4347826,0 L1.56521739,0 C0.700695652,0 0,0.700695652 0,1.56521739 L0,16.173913 C0,17.0384348 0.700695652,17.7391304 1.56521739,17.7391304 L22.4347826,17.7391304 C23.2993043,17.7391304 24,17.0384348 24,16.173913 L24,1.56521739 C24,0.700695652 23.2993043,0 22.4347826,0 Z" id="Shape" fill="#E6E6E6"></path>
                <path d="M15.2827826,6.36678261 L13.821913,6.36678261 C13.7222609,6.36678261 13.6372174,6.43930435 13.6215652,6.53791304 L13.0309565,10.284 C13.0194783,10.358087 13.0763478,10.4248696 13.1514783,10.4248696 L13.9012174,10.4248696 C13.9711304,10.4248696 14.0306087,10.3737391 14.0415652,10.3048696 L14.2090435,9.2426087 C14.2246957,9.144 14.3097391,9.07147826 14.4093913,9.07147826 L14.8716522,9.07147826 C15.8337391,9.07147826 16.3893913,8.60556522 16.5344348,7.6826087 C16.5996522,7.27878261 16.5370435,6.96156522 16.3481739,6.73982609 C16.14,6.49617391 15.7716522,6.36678261 15.2827826,6.36678261 Z M15.4513043,7.73530435 C15.3714783,8.25965217 14.9707826,8.25965217 14.5836522,8.25965217 L14.3634783,8.25965217 L14.517913,7.28034783 C14.5273043,7.2213913 14.5784348,7.17756522 14.6384348,7.17756522 C14.9593043,7.17756522 15.2410435,7.16452174 15.3808696,7.32782609 C15.4575652,7.41808696 15.4805217,7.55113043 15.4513043,7.73530435 Z" id="Shape" fill="#009EE3"></path>
                <path d="M4.8626087,6.36678261 L3.40173913,6.36678261 C3.30208696,6.36678261 3.21704348,6.43930435 3.2013913,6.53791304 L2.61078261,10.284 C2.59930435,10.358087 2.65617391,10.4248696 2.73130435,10.4248696 L3.42886957,10.4248696 C3.52852174,10.4248696 3.61356522,10.3523478 3.62921739,10.2537391 L3.78886957,9.24313043 C3.80452174,9.14452174 3.88956522,9.072 3.98921739,9.072 L4.45147826,9.072 C5.41356522,9.072 5.96921739,8.60608696 6.11426087,7.68313043 C6.17947826,7.27930435 6.11686957,6.96208696 5.928,6.74034783 C5.71930435,6.49617391 5.35147826,6.36678261 4.8626087,6.36678261 Z M5.03113043,7.73530435 C4.95130435,8.25965217 4.5506087,8.25965217 4.16347826,8.25965217 L3.94278261,8.25965217 L4.09721739,7.28034783 C4.1066087,7.2213913 4.15773913,7.17756522 4.21773913,7.17756522 L4.31895652,7.17756522 C4.58243478,7.17756522 4.83182609,7.17756522 4.96017391,7.32782609 C5.03686957,7.41808696 5.06034783,7.55113043 5.03113043,7.73530435 Z" id="Shape" fill="#113984"></path>
                <path d="M9.22956522,7.7186087 L8.52991304,7.7186087 C8.46991304,7.7186087 8.41878261,7.76243478 8.4093913,7.8213913 L8.3786087,8.01704348 C8.31078261,7.91843478 8.17565217,7.65286957 7.50313043,7.65286957 C6.73043478,7.65286957 6.06991304,8.23878261 5.94156522,9.06 C5.87478261,9.46956522 5.96973913,9.8613913 6.20191304,10.1347826 C6.41530435,10.3857391 6.72,10.4906087 7.08313043,10.4906087 C7.70608696,10.4906087 8.05147826,10.0904348 8.05147826,10.0904348 L8.02017391,10.2850435 C8.00869565,10.3591304 8.06556522,10.425913 8.14069565,10.425913 L8.77095652,10.425913 C8.8706087,10.425913 8.95565217,10.3533913 8.97130435,10.2547826 L9.34956522,7.86 C9.36104348,7.7853913 9.30417391,7.7186087 9.22956522,7.7186087 Z M8.25443478,9.08034783 C8.18713043,9.48 7.8693913,9.74817391 7.46504348,9.74817391 C7.26208696,9.74817391 7.09982609,9.68295652 6.99547826,9.55930435 C6.89217391,9.43669565 6.85304348,9.26243478 6.88591304,9.06782609 C6.94904348,8.67182609 7.27147826,8.39478261 7.67008696,8.39478261 C7.86886957,8.39478261 8.03008696,8.46052174 8.13652174,8.58521739 C8.24295652,8.71095652 8.28521739,8.88678261 8.25443478,9.08034783 Z" id="Shape" fill="#113984"></path>
                <path d="M19.6497391,7.7186087 L18.950087,7.7186087 C18.890087,7.7186087 18.8389565,7.76243478 18.8295652,7.8213913 L18.7987826,8.01704348 C18.7309565,7.91843478 18.5958261,7.65286957 17.9233043,7.65286957 C17.1506087,7.65286957 16.490087,8.23878261 16.3617391,9.06 C16.2949565,9.46956522 16.389913,9.8613913 16.622087,10.1347826 C16.8354783,10.3857391 17.1401739,10.4906087 17.5033043,10.4906087 C18.1262609,10.4906087 18.4716522,10.0904348 18.4716522,10.0904348 L18.4403478,10.2850435 C18.4288696,10.3591304 18.4857391,10.425913 18.5608696,10.425913 L19.1911304,10.425913 C19.2907826,10.425913 19.3758261,10.3533913 19.3914783,10.2547826 L19.7697391,7.86 C19.7817391,7.7853913 19.7243478,7.7186087 19.6497391,7.7186087 Z M18.6746087,9.08034783 C18.6067826,9.48 18.2895652,9.74817391 17.8852174,9.74817391 C17.6822609,9.74817391 17.52,9.68295652 17.4156522,9.55930435 C17.3123478,9.43669565 17.2732174,9.26243478 17.306087,9.06782609 C17.3692174,8.67182609 17.6916522,8.39478261 18.0902609,8.39478261 C18.2890435,8.39478261 18.4502609,8.46052174 18.5566957,8.58521739 C18.6631304,8.71095652 18.7053913,8.88678261 18.6746087,9.08034783 Z" id="Shape" fill="#009EE3"></path>
                <path d="M12.9553043,7.7186087 L12.252,7.7186087 C12.1846957,7.7186087 12.122087,7.752 12.084,7.80782609 L11.114087,9.23634783 L10.7029565,7.86365217 C10.6773913,7.77756522 10.598087,7.7186087 10.5083478,7.7186087 L9.81704348,7.7186087 C9.73356522,7.7186087 9.6746087,7.80052174 9.70173913,7.87982609 L10.476,10.1525217 L9.74765217,11.1803478 C9.69026087,11.2612174 9.74817391,11.3723478 9.84678261,11.3723478 L10.5490435,11.3723478 C10.6158261,11.3723478 10.677913,11.3394783 10.716,11.2852174 L13.0544348,7.91008696 C13.1113043,7.82869565 13.0533913,7.7186087 12.9553043,7.7186087 Z" id="Shape" fill="#113984"></path>
                <path d="M20.474087,6.47008696 L19.8746087,10.2850435 C19.8631304,10.3591304 19.92,10.425913 19.9951304,10.425913 L20.5982609,10.425913 C20.697913,10.425913 20.7829565,10.3533913 20.7986087,10.2547826 L21.3897391,6.50869565 C21.4012174,6.4346087 21.3443478,6.36782609 21.2692174,6.36782609 L20.594087,6.36782609 C20.5346087,6.36678261 20.4834783,6.4106087 20.474087,6.47008696 Z" id="Shape" fill="#009EE3"></path>
            </g>
        </g>
    </g>
</svg>