<?xml version="1.0" encoding="UTF-8"?>
<svg width="24px" height="18px" viewBox="0 0 24 18" version="1.1" xmlns="http://www.w3.org/2000/svg" xmlns:xlink="http://www.w3.org/1999/xlink">
    <!-- Generator: Sketch 49.1 (51147) - http://www.bohemiancoding.com/sketch -->
    <title>cards-color_mastercard</title>
    <desc>Created with Sketch.</desc>
    <defs></defs>
    <g id="Symbols" stroke="none" stroke-width="1" fill="none" fill-rule="evenodd">
        <g id="icon/payment/mastercard" transform="translate(0.000000, -3.000000)" fill-rule="nonzero">
            <g id="cards-color_mastercard" transform="translate(0.000000, 3.130000)">
                <path d="M22.4347826,0 L1.56521739,0 C0.700695652,0 0,0.700695652 0,1.56521739 L0,16.173913 C0,17.0384348 0.700695652,17.7391304 1.56521739,17.7391304 L22.4347826,17.7391304 C23.2993043,17.7391304 24,17.0384348 24,16.173913 L24,1.56521739 C24,0.700695652 23.2993043,0 22.4347826,0 Z" id="Shape" fill="#003564"></path>
                <circle id="Oval" fill="#F01524" cx="9.39130435" cy="8.86956522" r="4.17391304"></circle>
                <path d="M12,12.1252174 C12.0485217,12.086087 12.0923478,12.0412174 12.1393043,12 L11.8601739,12 C11.9076522,12.0412174 11.9514783,12.086087 12,12.1252174 Z" id="Shape" fill="#376BD1"></path>
                <path d="M14.6086957,4.69565217 C13.2913043,4.69565217 12.1184348,5.30765217 11.3530435,6.26086957 L12.6469565,6.26086957 C12.777913,6.42417391 12.8921739,6.60052174 12.998087,6.7826087 L11.0013913,6.7826087 L10.9972174,6.7826087 C10.9001739,6.95008696 10.8135652,7.12330435 10.7405217,7.30434783 L10.7452174,7.30434783 L13.2542609,7.30434783 C13.3231304,7.4733913 13.3826087,7.6466087 13.4290435,7.82608696 L10.5714783,7.82608696 C10.5276522,7.99617391 10.4926957,8.16991304 10.4707826,8.34782609 L13.5307826,8.34782609 C13.5521739,8.51895652 13.5652174,8.69269565 13.5652174,8.86956522 L10.4347826,8.86956522 C10.4347826,9.04643478 10.4493913,9.22017391 10.4707826,9.39130435 L13.5307826,9.39130435 C13.5083478,9.56921739 13.4728696,9.74295652 13.4290435,9.91304348 L10.5714783,9.91304348 C10.6173913,10.0914783 10.6726957,10.2662609 10.7410435,10.4347826 L10.7457391,10.4347826 L13.2547826,10.4347826 C13.1812174,10.6153043 13.0956522,10.7895652 12.9986087,10.9565217 L11.001913,10.9565217 L10.9977391,10.9565217 C11.1036522,11.1396522 11.2215652,11.3144348 11.3530435,11.4782609 L12.6469565,11.4782609 C12.4946087,11.6676522 12.321913,11.8398261 12.1393043,12 L11.8601739,12 L11.853913,12 C12.5890435,12.6474783 13.5516522,13.0434783 14.6081739,13.0434783 C16.9132174,13.0434783 18.782087,11.1746087 18.782087,8.86956522 C18.782087,6.56452174 16.9137391,4.69565217 14.6086957,4.69565217 Z" id="Shape" fill="#FEB415"></path>
            </g>
        </g>
    </g>
</svg>