<?xml version="1.0" encoding="UTF-8"?>
<svg width="24px" height="18px" viewBox="0 0 24 18" version="1.1" xmlns="http://www.w3.org/2000/svg" xmlns:xlink="http://www.w3.org/1999/xlink">
    <!-- Generator: Sketch 49.1 (51147) - http://www.bohemiancoding.com/sketch -->
    <title>cards-color_amex</title>
    <desc>Created with Sketch.</desc>
    <defs></defs>
    <g id="Symbols" stroke="none" stroke-width="1" fill="none" fill-rule="evenodd">
        <g id="icon/payment/american-express" transform="translate(0.000000, -3.000000)" fill-rule="nonzero">
            <g id="cards-color_amex" transform="translate(0.000000, 3.130000)">
                <path d="M22.4347826,0 L1.56521739,0 C0.700695652,0 0,0.700695652 0,1.56521739 L0,16.173913 C0,17.0384348 0.700695652,17.7391304 1.56521739,17.7391304 L22.4347826,17.7391304 C23.2993043,17.7391304 24,17.0384348 24,16.173913 L24,1.56521739 C24,0.700695652 23.2993043,0 22.4347826,0 Z" id="Shape" fill="#007AC6"></path>
                <path d="M4.97373913,9.0933913 L6.1893913,9.0933913 L5.58156522,7.60278261 L4.97373913,9.0933913 Z M21.9130435,6.26086957 L18.7987826,6.26086957 L18.0391304,7.08052174 L17.3551304,6.26086957 L10.7467826,6.26086957 L10.1389565,7.60226087 L9.53113043,6.26086957 L6.87234783,6.26086957 L6.87234783,6.85721739 L6.56869565,6.26086957 L4.28973913,6.26086957 L2.08695652,11.4782609 L4.74573913,11.4782609 L5.0493913,10.6586087 L5.80904348,10.6586087 L6.11269565,11.4782609 L9.07513043,11.4782609 L9.07513043,10.881913 L9.30313043,11.4782609 L10.8224348,11.4782609 L11.0504348,10.8073043 L11.0504348,11.4782609 L17.1276522,11.4782609 L17.8873043,10.6586087 L18.5707826,11.4782609 L21.6850435,11.4782609 L19.7102609,8.86956522 L21.9130435,6.26086957 Z M12.7215652,10.7326957 L11.8857391,10.7326957 L11.8857391,7.82608696 L10.5944348,10.7326957 L9.83478261,10.7326957 L8.54347826,7.82608696 L8.54347826,10.7326957 L6.79617391,10.7326957 L6.49252174,9.91304348 L4.66956522,9.91304348 L4.36591304,10.7326957 L3.37826087,10.7326957 L4.97321739,7.00591304 L6.26452174,7.00591304 L7.70765217,10.5088696 L7.70765217,7.00591304 L9.15078261,7.00591304 L10.2902609,9.54 L11.3535652,7.00591304 L12.7966957,7.00591304 L12.7966957,10.7326957 L12.7215652,10.7326957 Z M20.241913,10.7326957 L19.1024348,10.7326957 L18.1147826,9.4653913 L16.9753043,10.7326957 L13.5568696,10.7326957 L13.5568696,7.00591304 L17.0509565,7.00591304 L18.1142609,8.1986087 L19.2537391,7.00591304 L20.3170435,7.00591304 L18.6464348,8.86956522 L20.241913,10.7326957 Z M14.3926957,7.75147826 L14.3926957,8.42243478 L16.2918261,8.42243478 L16.2918261,9.168 L14.3926957,9.168 L14.3926957,9.91304348 L16.5198261,9.91304348 L17.5074783,8.79495652 L16.596,7.75147826 L14.3926957,7.75147826 Z" id="Shape" fill="#FFFFFF"></path>
            </g>
        </g>
    </g>
</svg>