<?xml version="1.0" encoding="UTF-8"?>
<svg width="24px" height="18px" viewBox="0 0 24 18" version="1.1" xmlns="http://www.w3.org/2000/svg" xmlns:xlink="http://www.w3.org/1999/xlink">
    <!-- Generator: Sketch 49.1 (51147) - http://www.bohemiancoding.com/sketch -->
    <title>cards-color_discover</title>
    <desc>Created with Sketch.</desc>
    <defs></defs>
    <g id="Symbols" stroke="none" stroke-width="1" fill="none" fill-rule="evenodd">
        <g id="icon/payment/discover" transform="translate(0.000000, -3.000000)" fill-rule="nonzero">
            <g id="cards-color_discover" transform="translate(0.000000, 3.130000)">
                <path d="M24,8.76886957 L24,1.56521739 C24,0.700695652 23.2993043,0 22.4347826,0 L1.56521739,0 C0.700695652,0 0,0.700695652 0,1.56521739 L0,16.173913 C0,17.0384348 0.700695652,17.7391304 1.56521739,17.7391304 L7.08991304,17.7391304 C15.249913,16.5970435 21.9146087,12.0490435 24,8.76886957 Z" id="Shape" fill="#E6E6E6"></path>
                <path d="M24,16.173913 L24,8.76886957 C21.9146087,12.0490435 15.249913,16.5970435 7.08991304,17.7391304 L22.4347826,17.7391304 C23.2993043,17.7391304 24,17.0384348 24,16.173913 Z" id="Shape" fill="#E6E6E6"></path>
                <path d="M24,16.173913 L24,8.76886957 C21.9146087,12.0490435 15.249913,16.5970435 7.08991304,17.7391304 L22.4347826,17.7391304 C23.2993043,17.7391304 24,17.0384348 24,16.173913 Z" id="Shape" fill="#FA7000"></path>
                <path d="M12.5368696,7.31113043 C11.6551304,7.31113043 10.9393043,7.99982609 10.9393043,8.85078261 C10.9393043,9.75547826 11.6238261,10.4306087 12.5368696,10.4306087 C13.428,10.4306087 14.1302609,9.74556522 14.1302609,8.868 C14.1307826,7.99565217 13.4332174,7.31113043 12.5368696,7.31113043 Z" id="Shape" fill="#FA7000"></path>
                <path d="M3.46747826,7.36747826 L2.60869565,7.36747826 L2.60869565,10.3638261 L3.46226087,10.3638261 C3.91669565,10.3638261 4.24434783,10.2558261 4.53182609,10.0173913 C4.87304348,9.73513043 5.076,9.30834783 5.076,8.86643478 C5.07547826,7.98156522 4.41495652,7.36747826 3.46747826,7.36747826 Z M4.15095652,9.61773913 C3.96521739,9.78365217 3.72834783,9.85617391 3.35008696,9.85617391 L3.19356522,9.85617391 L3.19356522,7.8746087 L3.3506087,7.8746087 C3.72886957,7.8746087 3.95634783,7.94243478 4.15147826,8.11669565 C4.35234783,8.29669565 4.4733913,8.57478261 4.4733913,8.86226087 C4.47286957,9.15078261 4.35234783,9.43878261 4.15095652,9.61773913 Z" id="Shape" fill="#444444"></path>
                <rect id="Rectangle-path" fill="#444444" x="5.34521739" y="7.36747826" width="1" height="2.99634783"></rect>
                <path d="M7.35756522,8.51582609 C7.00591304,8.38695652 6.90313043,8.30086957 6.90313043,8.13913043 C6.90313043,7.95078261 7.08678261,7.80782609 7.33930435,7.80782609 C7.51408696,7.80782609 7.6586087,7.87773913 7.812,8.04886957 L8.11617391,7.65026087 C7.86521739,7.42904348 7.56417391,7.3173913 7.23652174,7.3173913 C6.70643478,7.3173913 6.30208696,7.68626087 6.30208696,8.17408696 C6.30208696,8.58834783 6.48991304,8.7986087 7.03826087,8.99791304 C7.26730435,9.07773913 7.38365217,9.132 7.44313043,9.16904348 C7.56,9.24469565 7.61791304,9.35269565 7.61791304,9.47791304 C7.61791304,9.72156522 7.42486957,9.90104348 7.16347826,9.90104348 C6.8853913,9.90104348 6.66052174,9.76173913 6.52591304,9.50034783 L6.14921739,9.86556522 C6.41843478,10.26 6.7413913,10.4363478 7.18643478,10.4363478 C7.79321739,10.4363478 8.22052174,10.0304348 8.22052174,9.45182609 C8.22104348,8.97495652 8.02278261,8.75895652 7.35756522,8.51582609 Z" id="Shape" fill="#444444"></path>
                <path d="M8.40417391,8.86643478 C8.40417391,9.74765217 9.096,10.4306087 9.98608696,10.4306087 C10.2370435,10.4306087 10.4525217,10.3810435 10.7175652,10.2558261 L10.7175652,9.56713043 C10.4833043,9.80243478 10.2777391,9.89530435 10.0116522,9.89530435 C9.42313043,9.89530435 9.00626087,9.46956522 9.00626087,8.86226087 C9.00626087,8.28834783 9.43669565,7.8333913 9.98556522,7.8333913 C10.2626087,7.8333913 10.4744348,7.93147826 10.7170435,8.17043478 L10.7170435,7.48278261 C10.4608696,7.3533913 10.2506087,7.29965217 9.99756522,7.29965217 C9.11321739,7.29965217 8.40417391,7.99565217 8.40417391,8.86643478 Z" id="Shape" fill="#444444"></path>
                <polygon id="Shape" fill="#444444" points="15.4523478 9.37930435 14.6535652 7.36747826 14.016 7.36747826 15.2864348 10.4394783 15.6 10.4394783 16.8949565 7.36747826 16.2626087 7.36747826"></polygon>
                <polygon id="Shape" fill="#444444" points="17.16 10.3638261 18.8170435 10.3638261 18.8170435 9.85617391 17.7448696 9.85617391 17.7448696 9.04747826 18.7763478 9.04747826 18.7763478 8.53982609 17.7448696 8.53982609 17.7448696 7.8746087 18.8170435 7.8746087 18.8170435 7.36747826 17.16 7.36747826"></polygon>
                <path d="M21.1304348,8.25130435 C21.1304348,7.68991304 20.7453913,7.36695652 20.0707826,7.36695652 L19.2026087,7.36695652 L19.2026087,10.3633043 L19.7885217,10.3633043 L19.7885217,9.1586087 L19.8646957,9.1586087 L20.6718261,10.3633043 L21.3913043,10.3633043 L20.4485217,9.10017391 C20.8888696,9.01095652 21.1304348,8.70991304 21.1304348,8.25130435 Z M19.9586087,8.7453913 L19.7890435,8.7453913 L19.7890435,7.83913043 L19.968,7.83913043 C20.3332174,7.83913043 20.5288696,7.99252174 20.5288696,8.28417391 C20.5288696,8.58365217 20.3332174,8.7453913 19.9586087,8.7453913 Z" id="Shape" fill="#444444"></path>
            </g>
        </g>
    </g>
</svg>