<?xml version="1.0" encoding="UTF-8"?>
<svg width="24px" height="18px" viewBox="0 0 24 18" version="1.1" xmlns="http://www.w3.org/2000/svg" xmlns:xlink="http://www.w3.org/1999/xlink">
    <!-- Generator: Sketch 49.1 (51147) - http://www.bohemiancoding.com/sketch -->
    <title>cards-color_android</title>
    <desc>Created with Sketch.</desc>
    <defs></defs>
    <g id="Symbols" stroke="none" stroke-width="1" fill="none" fill-rule="evenodd">
        <g id="icon/payment/android-pay" transform="translate(0.000000, -3.000000)">
            <g id="cards-color_android" transform="translate(0.000000, 3.130000)">
                <path d="M22.4347826,0 L1.56521739,0 C0.700695652,0 0,0.700695652 0,1.56521739 L0,16.173913 C0,17.0384348 0.700695652,17.7391304 1.56521739,17.7391304 L22.4347826,17.7391304 C23.2993043,17.7391304 24,17.0384348 24,16.173913 L24,1.56521739 C24,0.700695652 23.2993043,0 22.4347826,0 Z" id="Shape" fill="#E6E6E6" fill-rule="nonzero"></path>
                <path d="M8.34782609,10.4347826 C8.05982609,10.4347826 7.82608696,10.2010435 7.82608696,9.91304348 L7.82608696,7.82608696 C7.82608696,7.53808696 8.05982609,7.30434783 8.34782609,7.30434783 C8.63582609,7.30434783 8.86956522,7.53808696 8.86956522,7.82608696 L8.86956522,9.91304348 C8.86956522,10.2010435 8.63582609,10.4347826 8.34782609,10.4347826 Z" id="Shape" fill="#76C450"></path>
                <path d="M15.6521739,10.4347826 C15.3641739,10.4347826 15.1304348,10.2010435 15.1304348,9.91304348 L15.1304348,7.82608696 C15.1304348,7.53808696 15.3641739,7.30434783 15.6521739,7.30434783 C15.9401739,7.30434783 16.173913,7.53808696 16.173913,7.82608696 L16.173913,9.91304348 C16.173913,10.2010435 15.9401739,10.4347826 15.6521739,10.4347826 Z" id="Shape" fill="#76C450"></path>
                <path d="M9.39130435,7.30434783 L9.39130435,11.4782609 C9.39130435,11.7662609 9.62504348,12 9.91304348,12 L10.4347826,12 L10.4347826,13.0434783 C10.4347826,13.3314783 10.6685217,13.5652174 10.9565217,13.5652174 C11.2445217,13.5652174 11.4782609,13.3314783 11.4782609,13.0434783 L11.4782609,12 L12.5217391,12 L12.5217391,13.0434783 C12.5217391,13.3314783 12.7554783,13.5652174 13.0434783,13.5652174 C13.3314783,13.5652174 13.5652174,13.3314783 13.5652174,13.0434783 L13.5652174,12 L14.0869565,12 C14.3749565,12 14.6086957,11.7662609 14.6086957,11.4782609 L14.6086957,7.30434783 L9.39130435,7.30434783 Z" id="Shape" fill="#76C450"></path>
                <path d="M9.39130435,6.7826087 L14.6086957,6.7826087 C14.6086957,5.97130435 14.2309565,5.256 13.6502609,4.77756522 L14.304,3.79669565 C14.3838261,3.67721739 14.3514783,3.51495652 14.2314783,3.43513043 C14.1109565,3.35530435 13.9486957,3.38713043 13.869913,3.50765217 L13.2161739,4.488 C12.8514783,4.29391304 12.441913,4.17391304 12,4.17391304 C11.558087,4.17391304 11.1485217,4.29391304 10.7838261,4.488 L10.130087,3.50765217 C10.0502609,3.38765217 9.888,3.35530435 9.76852174,3.43513043 C9.64852174,3.51495652 9.61617391,3.67721739 9.696,3.79669565 L10.3497391,4.77756522 C9.76904348,5.256 9.39130435,5.97130435 9.39130435,6.7826087 Z" id="Shape" fill="#76C450" fill-rule="nonzero"></path>
            </g>
        </g>
    </g>
</svg>