<?xml version="1.0" encoding="UTF-8"?>
<svg width="24px" height="18px" viewBox="0 0 24 18" version="1.1" xmlns="http://www.w3.org/2000/svg" xmlns:xlink="http://www.w3.org/1999/xlink">
    <!-- Generator: Sketch 49.1 (51147) - http://www.bohemiancoding.com/sketch -->
    <title>cards-color_visa</title>
    <desc>Created with Sketch.</desc>
    <defs></defs>
    <g id="Symbols" stroke="none" stroke-width="1" fill="none" fill-rule="evenodd">
        <g id="icon/payment/visa" transform="translate(0.000000, -3.000000)" fill-rule="nonzero">
            <g id="cards-color_visa" transform="translate(0.000000, 3.130000)">
                <rect id="Rectangle-path" fill="#E6E6E6" x="0" y="3.65217391" width="24" height="9.91304348"></rect>
                <path d="M1.56521739,17.7391304 L22.4347826,17.7391304 C23.2993043,17.7391304 24,17.0384348 24,16.173913 L24,13.5652174 L0,13.5652174 L0,16.173913 C0,17.0384348 0.700695652,17.7391304 1.56521739,17.7391304 Z" id="Shape" fill="#E79800"></path>
                <path d="M22.4347826,0 L1.56521739,0 C0.700695652,0 0,0.700695652 0,1.56521739 L0,4.17391304 L24,4.17391304 L24,1.56521739 C24,0.700695652 23.2993043,0 22.4347826,0 Z" id="Shape" fill="#1A1876"></path>
                <polygon id="Shape" fill="#1A1876" points="9.51547826 11.373913 10.8766957 11.373913 11.7286957 6.37773913 10.3669565 6.37773913"></polygon>
                <path d="M14.4746087,8.38382609 C13.9987826,8.15269565 13.7071304,7.99826087 13.7102609,7.76452174 C13.7102609,7.55686957 13.9570435,7.3346087 14.4902609,7.3346087 C14.9264348,7.32782609 15.278087,7.41652174 15.6318261,7.58347826 L15.8165217,6.50034783 C15.5467826,6.39913043 15.1241739,6.2906087 14.5961739,6.2906087 C13.2506087,6.2906087 12.3026087,6.96834783 12.2947826,7.93930435 C12.2869565,8.65721739 12.9714783,9.05791304 13.488,9.29686957 C14.018087,9.54156522 14.1965217,9.69808696 14.193913,9.91669565 C14.1907826,10.2516522 13.7707826,10.4045217 13.3789565,10.4045217 C12.7747826,10.4045217 12.470087,10.3111304 11.9217391,10.0627826 L11.7307826,11.1813913 C12.0490435,11.3206957 12.6370435,11.4417391 13.248,11.448 C14.6796522,11.448 15.6088696,10.778087 15.6193043,9.74086957 C15.6229565,9.17269565 15.2603478,8.74017391 14.4746087,8.38382609 Z" id="Shape" fill="#1A1876"></path>
                <path d="M19.308,6.38243478 L18.2556522,6.38243478 C17.9295652,6.38243478 17.685913,6.47165217 17.5424348,6.79669565 L15.5201739,11.3754783 L16.9502609,11.3754783 C16.9502609,11.3754783 17.184,10.7598261 17.2372174,10.6246957 C17.3937391,10.6246957 18.7826087,10.6267826 18.9813913,10.6267826 C19.022087,10.8015652 19.1473043,11.3754783 19.1473043,11.3754783 L20.4109565,11.3754783 L19.308,6.38243478 Z M17.6290435,9.60313043 C17.6853913,9.45913043 18.2410435,8.03217391 18.3521739,7.72956522 C18.5363478,8.59095652 18.3568696,7.75513043 18.7596522,9.60313043 L17.6290435,9.60313043 Z" id="Shape" fill="#1A1876"></path>
                <path d="M8.3733913,6.3813913 L7.03982609,9.78834783 L6.89791304,9.096 L6.42052174,6.79982609 C6.33808696,6.48365217 6.09913043,6.38921739 5.80330435,6.37826087 L3.60678261,6.37826087 L3.58956522,6.48208696 C4.12382609,6.61147826 4.60121739,6.79826087 5.02017391,7.02991304 L6.23113043,11.3692174 L7.67217391,11.3676522 L9.816,6.38086957 L8.3733913,6.38086957 L8.3733913,6.3813913 Z" id="Shape" fill="#1A1876"></path>
            </g>
        </g>
    </g>
</svg>