<?xml version="1.0" encoding="UTF-8"?>
<svg width="24px" height="18px" viewBox="0 0 24 18" version="1.1" xmlns="http://www.w3.org/2000/svg" xmlns:xlink="http://www.w3.org/1999/xlink">
    <!-- Generator: Sketch 49.1 (51147) - http://www.bohemiancoding.com/sketch -->
    <title>cards-color_apple</title>
    <desc>Created with Sketch.</desc>
    <defs></defs>
    <g id="Symbols" stroke="none" stroke-width="1" fill="none" fill-rule="evenodd">
        <g id="icon/payment/apple-pay" transform="translate(0.000000, -3.000000)">
            <g id="cards-color_apple" transform="translate(0.000000, 3.130000)">
                <path d="M22.4347826,0 L1.56521739,0 C0.700695652,0 0,0.700695652 0,1.56521739 L0,16.173913 C0,17.0384348 0.700695652,17.7391304 1.56521739,17.7391304 L22.4347826,17.7391304 C23.2993043,17.7391304 24,17.0384348 24,16.173913 L24,1.56521739 C24,0.700695652 23.2993043,0 22.4347826,0 Z" id="Shape" fill="#E6E6E6" fill-rule="nonzero"></path>
                <path d="M16.0361739,11.064 C15.8154783,11.5528696 15.710087,11.7709565 15.4257391,12.2029565 C15.0297391,12.806087 14.4709565,13.5573913 13.7786087,13.5636522 C13.1634783,13.5693913 13.0053913,13.1634783 12.1706087,13.1681739 C11.3358261,13.1728696 11.1615652,13.5709565 10.5464348,13.5652174 C9.85408696,13.5589565 9.32504348,12.8806957 8.92852174,12.2770435 C7.82034783,10.5902609 7.70452174,8.61078261 8.388,7.55843478 C8.87373913,6.81026087 9.64017391,6.37304348 10.3606957,6.37304348 C11.0942609,6.37304348 11.5554783,6.77530435 12.1622609,6.77530435 C12.7507826,6.77530435 13.1092174,6.37252174 13.9575652,6.37252174 C14.5987826,6.37252174 15.278087,6.72156522 15.7622609,7.32469565 C14.1761739,8.19391304 14.433913,10.4582609 16.0361739,11.064 Z" id="Shape" fill="#444444"></path>
                <path d="M13.3142609,5.69843478 C13.6226087,5.30295652 13.8563478,4.74469565 13.7713043,4.17391304 C13.2678261,4.20834783 12.6793043,4.52869565 12.3354783,4.94608696 C12.0234783,5.32486957 11.7657391,5.88678261 11.865913,6.43304348 C12.4153043,6.45026087 12.984,6.12208696 13.3142609,5.69843478 Z" id="Shape" fill="#444444"></path>
            </g>
        </g>
    </g>
</svg>