<?xml version="1.0" encoding="UTF-8"?>
<svg width="24px" height="18px" viewBox="0 0 24 18" version="1.1" xmlns="http://www.w3.org/2000/svg" xmlns:xlink="http://www.w3.org/1999/xlink">
    <!-- Generator: Sketch 49.1 (51147) - http://www.bohemiancoding.com/sketch -->
    <title>cards-color_bitcoin</title>
    <desc>Created with Sketch.</desc>
    <defs></defs>
    <g id="Symbols" stroke="none" stroke-width="1" fill="none" fill-rule="evenodd">
        <g id="icon/payment/avon-quikpay" transform="translate(0.000000, -3.000000)">
            <g id="cards-color_bitcoin" transform="translate(0.000000, 3.130000)">
                <path d="M22.4347826,0 L1.56521739,0 C0.700695652,0 0,0.700695652 0,1.56521739 L0,16.173913 C0,17.0384348 0.700695652,17.7391304 1.56521739,17.7391304 L22.4347826,17.7391304 C23.2993043,17.7391304 24,17.0384348 24,16.173913 L24,1.56521739 C24,0.700695652 23.2993043,0 22.4347826,0 Z" id="Shape" fill="#ED008C" fill-rule="nonzero"></path>
                <path d="M10.5428571,13.252 L9.61885713,12.424 C8.91085713,12.88 8.05885713,13.144 7.12285713,13.144 C4.53085713,13.144 2.67085713,11.212 2.67085713,8.824 L2.67085713,8.8 C2.67085713,6.412 4.55485713,4.456 7.14685713,4.456 C9.73885713,4.456 11.5988571,6.388 11.5988571,8.776 L11.5988571,8.8 C11.5988571,9.676 11.3348571,10.516 10.8548571,11.212 L11.7188571,11.944 L10.5428571,13.252 Z M7.14685713,11.44 C7.55485713,11.44 7.92685713,11.356 8.25085713,11.212 L6.88285713,10.048 L8.05885713,8.728 L9.43885713,9.976 C9.59485713,9.628 9.66685713,9.244 9.66685713,8.824 L9.66685713,8.8 C9.66685713,7.36 8.61085713,6.16 7.12285713,6.16 C5.63485713,6.16 4.60285713,7.336 4.60285713,8.776 L4.60285713,8.8 C4.60285713,10.24 5.65885713,11.44 7.14685713,11.44 Z M14.1,13 L14.1,4.6 L17.532,4.6 C19.536,4.6 20.748,5.788 20.748,7.504 L20.748,7.528 C20.748,9.472 19.236,10.48 17.352,10.48 L15.948,10.48 L15.948,13 L14.1,13 Z M15.948,8.836 L17.412,8.836 C18.336,8.836 18.876,8.284 18.876,7.564 L18.876,7.54 C18.876,6.712 18.3,6.268 17.376,6.268 L15.948,6.268 L15.948,8.836 Z" id="QP" fill="#FFFFFF"></path>
            </g>
        </g>
    </g>
</svg>