<svg width="32" height="32" xmlns="http://www.w3.org/2000/svg"><g fill="none" fill-rule="evenodd"><path d="M18.064 30.933H2.87a2.003 2.003 0 0 1-2.002-1.999V7.332c0-1.102.898-1.999 2.002-1.999h8.848c.97 0 2.27.537 2.956 1.223l4.17 4.163c.686.686 1.224 1.982 1.224 2.952v15.263c0 1.102-.899 2-2.003 2zM2.87 6.256c-.595 0-1.078.483-1.078 1.076v21.602c0 .594.483 1.077 1.078 1.077h15.195c.595 0 1.078-.483 1.078-1.077V13.671c0-.718-.445-1.792-.953-2.3l-4.17-4.163c-.508-.507-1.584-.952-2.302-.952H2.869z" fill="#313335" fill-rule="nonzero"/><path d="M17.233 11.733H14.03a1.965 1.965 0 0 1-1.963-1.963V6.566c0-.91.488-1.233.907-1.233.308 0 .622.159.934.47l4.088 4.09c.57.569.5 1.025.41 1.247-.093.222-.367.593-1.173.593zm-4.217-5.48a.881.881 0 0 0-.044.313V9.77c0 .583.475 1.057 1.058 1.057h3.203a.881.881 0 0 0 .312-.043.874.874 0 0 0-.19-.251l-4.088-4.089a.88.88 0 0 0-.251-.19z" fill="#313335" fill-rule="nonzero"/><path d="M19.267 8.533a.527.527 0 0 1-.379-.155L15.394 4.77a.43.43 0 0 1-.083-.495.51.51 0 0 1 .461-.272h1.252V.994c0-.254.227-.46.506-.46h3.473c.279 0 .505.206.505.46v3.01h1.253a.51.51 0 0 1 .46.272.43.43 0 0 1-.081.495l-3.495 3.607a.528.528 0 0 1-.378.155zm-2.373-3.606l2.373 2.448 2.372-2.448h-.637c-.279 0-.505-.206-.505-.461v-3.01h-2.462v3.01c0 .255-.227.461-.506.461h-.635z" fill="#EE3E36" fill-rule="nonzero"/><g fill="#313335" fill-rule="nonzero"><path d="M5.78 25.824h-.758v1.257c0 .18-.04.317-.117.41a.37.37 0 0 1-.296.139.372.372 0 0 1-.301-.138c-.077-.092-.115-.227-.115-.404v-3.424c0-.198.042-.34.126-.424.083-.085.216-.127.399-.127H5.78c.314 0 .556.026.725.079.167.05.312.134.434.251.122.117.215.26.278.43.063.17.095.36.095.573 0 .452-.129.795-.386 1.028-.256.233-.638.35-1.146.35zm-.2-2.036h-.558v1.357h.558c.195 0 .359-.022.49-.066a.573.573 0 0 0 .3-.218.693.693 0 0 0 .103-.397.71.71 0 0 0-.159-.479c-.12-.131-.364-.197-.734-.197zM8.518 23.113h1.08c.28 0 .522.028.723.085.2.056.383.162.547.318.426.396.639.997.639 1.805 0 .267-.022.51-.065.73-.043.22-.108.419-.198.596a1.83 1.83 0 0 1-.343.474c-.11.107-.23.192-.36.257-.13.065-.27.11-.42.136-.15.027-.318.04-.507.04h-1.08c-.15 0-.263-.025-.34-.074a.342.342 0 0 1-.149-.21 1.435 1.435 0 0 1-.034-.35v-3.256c0-.194.04-.334.12-.42.08-.088.208-.131.387-.131zm.321.712v3.014h.628c.137 0 .245-.004.324-.012a.94.94 0 0 0 .242-.06.65.65 0 0 0 .218-.137c.277-.254.416-.693.416-1.315 0-.438-.061-.766-.183-.984-.122-.218-.272-.357-.45-.417a2.06 2.06 0 0 0-.648-.09H8.84zM14.68 23.807h-1.633v1.136h1.365c.126 0 .22.03.283.092a.332.332 0 0 1 .093.247.323.323 0 0 1-.095.245c-.063.06-.157.091-.281.091h-1.365v1.463c0 .186-.039.324-.116.414a.375.375 0 0 1-.297.135.376.376 0 0 1-.3-.137c-.077-.09-.116-.228-.116-.412v-3.417c0-.13.018-.235.053-.317a.346.346 0 0 1 .166-.178.648.648 0 0 1 .288-.056h1.954c.132 0 .23.032.294.095a.336.336 0 0 1 .096.25.34.34 0 0 1-.096.253c-.064.064-.162.096-.294.096z"/></g><path d="M5.157 22.933c-.468 0-.844-.238-1.006-.637-.27-.664.119-1.577 1.069-2.505.744-.727 1.783-1.325 3.09-1.78a33.79 33.79 0 0 0 1.782-3.854c-.993-1.546-1.176-3.454-.83-4.52.226-.69.615-.95.901-1.045.4-.135.808-.034 1.092.272.429.461.586 1.39.481 2.84-.042.577-.234 1.353-.571 2.31l.044.054c.226.276.466.58.718.897.537.678 1.141 1.44 1.756 2.123.181-.006.356-.008.525-.008 2.17 0 3.627.454 4.103 1.279.203.351.207.747.012 1.086-.264.457-.834.73-1.526.73-.168 0-.341-.017-.515-.05-.872-.16-1.83-.817-3.002-2.061-.3.016-.614.04-.936.071-.69.067-2.024.24-3.375.667-.58 1.05-1.831 3.17-2.764 3.78-.352.23-.714.351-1.048.351zm2.382-3.572c-.669.323-1.22.696-1.65 1.116-.844.824-.899 1.341-.852 1.457.014.034.073.04.12.04.143 0 .334-.07.524-.194.417-.273 1.105-1.177 1.858-2.42zm7.075-1.317c.723.67 1.33 1.045 1.841 1.14.117.021.232.032.341.032.38 0 .628-.13.697-.25.013-.023.031-.054-.012-.128-.16-.279-.945-.737-2.867-.794zm-3.844-2.995c-.335.822-.742 1.711-1.184 2.585a18.93 18.93 0 0 1 2.666-.453l.223-.02a62.026 62.026 0 0 1-1.299-1.6l-.406-.512zm-.256-5.558a.153.153 0 0 0-.046.01c-.108.036-.218.198-.295.434-.23.705-.138 1.892.34 2.985.152-.518.243-.954.267-1.285.117-1.613-.144-2.03-.227-2.118-.023-.026-.032-.026-.039-.026z" fill="#EE3E36" fill-rule="nonzero"/><path d="M-10.333-2.667h40v40h-40z"/></g></svg>
